<svg width="45" height="44" viewBox="0 0 45 44" fill="none" xmlns="http://www.w3.org/2000/svg">
<g id="lucide:goal">
<g id="Group">
<path id="Vector" d="M22.2183 23.8346V3.66797L36.8849 11.0013L22.2183 18.3346" stroke="#145098" stroke-width="4" stroke-linecap="round" stroke-linejoin="round"/>
<path id="Vector_2" d="M37.9128 18.7413C38.8885 21.7482 38.9797 24.9721 38.1758 28.0294C37.3719 31.0867 35.7067 33.8488 33.3782 35.9869C31.0497 38.125 28.1561 39.5493 25.0414 40.0902C21.9268 40.631 18.7224 40.2658 15.8094 39.0379C12.8963 37.8101 10.3974 35.7712 8.60974 33.164C6.82211 30.5567 5.82109 27.4908 5.72577 24.331C5.63045 21.1712 6.44484 18.0505 8.07205 15.3403C9.69926 12.63 12.0708 10.4442 14.9045 9.04297" stroke="#145098" stroke-width="4" stroke-linecap="round" stroke-linejoin="round"/>
<path id="Vector_3" d="M14.888 18.3281C13.9693 19.551 13.3712 20.9843 13.1482 22.4975C12.9252 24.0106 13.0844 25.5555 13.6113 26.9914C14.1381 28.4274 15.0159 29.7086 16.1646 30.7185C17.3133 31.7283 18.6965 32.4347 20.188 32.7733C21.6796 33.1118 23.2322 33.0717 24.7043 32.6567C26.1764 32.2417 27.5213 31.4649 28.6164 30.3971C29.7115 29.3293 30.522 28.0045 30.9741 26.5433C31.4262 25.0822 31.5054 23.5311 31.2047 22.0315" stroke="#145098" stroke-width="4" stroke-linecap="round" stroke-linejoin="round"/>
</g>
</g>
</svg>
