<svg width="33" height="30" viewBox="0 0 33 30" fill="none" xmlns="http://www.w3.org/2000/svg">
<path fill-rule="evenodd" clip-rule="evenodd" d="M9.49389 24.1656C4.43987 24.1656 0.328125 20.0539 0.328125 14.9998C0.328125 9.94573 4.43985 5.83398 9.49389 5.83398C11.8503 5.83398 14.0738 6.72395 15.7628 8.31158C15.3069 8.8154 14.9017 9.36601 14.5552 9.95495C13.2295 8.62059 11.4239 7.85559 9.4939 7.85559C5.55462 7.85559 2.34967 11.0604 2.34967 14.9999C2.34967 18.9392 5.5546 22.1441 9.4939 22.1441C11.4238 22.1441 13.2294 21.3791 14.5552 20.0447C14.9017 20.6337 15.307 21.1842 15.7629 21.6881C14.0739 23.2756 11.8505 24.1656 9.49389 24.1656ZM8.17024 17.3792C8.0663 17.3792 7.96236 17.3396 7.88301 17.2603L6.58364 15.9609C6.42493 15.8022 6.42493 15.5451 6.58364 15.3864C6.74221 15.2279 6.99947 15.2279 7.1581 15.3864L8.17024 16.3986L11.8297 12.7394C11.9883 12.5806 12.2456 12.5806 12.4042 12.7394C12.5628 12.898 12.5628 13.1552 12.4042 13.3138L8.45754 17.2603C8.37819 17.3396 8.27425 17.3792 8.17024 17.3792ZM14.1532 10.7105C13.5317 12.0105 13.1834 13.4652 13.1834 14.9998C13.1834 16.5345 13.5317 17.9892 14.1532 19.2892C12.9648 20.5839 11.2901 21.3317 9.49398 21.3317C6.00262 21.3317 3.16221 18.4912 3.16221 14.9999C3.16221 11.5086 6.00262 8.66815 9.49398 8.66815C11.2901 8.66815 12.965 9.41587 14.1532 10.7105Z" fill="#0B369C"/>
<path fill-rule="evenodd" clip-rule="evenodd" d="M23.1579 24.1656C18.1039 24.1656 13.9922 20.0538 13.9922 14.9998C13.9922 9.94573 18.1038 5.83398 23.1579 5.83398C28.2119 5.83398 32.3237 9.94571 32.3237 14.9998C32.3237 20.0538 28.2119 24.1656 23.1579 24.1656ZM20.5349 18.0291C20.4309 18.0291 20.327 17.9894 20.2476 17.9101C20.089 17.7515 20.089 17.4943 20.2476 17.3356L22.5834 14.9999L20.2476 12.664C20.089 12.5055 20.089 12.2482 20.2476 12.0896C20.4063 11.9309 20.6635 11.9309 20.8222 12.0896L23.158 14.4254L25.4936 12.0896C25.6524 11.931 25.9096 11.9311 26.0682 12.0896C26.2268 12.2484 26.2268 12.5055 26.0682 12.6642L23.7325 14.9999L26.0682 17.3355C26.2268 17.4942 26.2268 17.7514 26.0682 17.91C25.9095 18.0686 25.6523 18.0686 25.4936 17.91L23.158 15.5744L20.8222 17.9101C20.7429 17.9894 20.6389 18.0291 20.5349 18.0291ZM23.1579 22.144C19.2185 22.144 16.0136 18.9391 16.0136 14.9998C16.0136 11.0605 19.2184 7.85552 23.1579 7.85552C27.0973 7.85552 30.3022 11.0605 30.3022 14.9998C30.3022 18.9391 27.0973 22.144 23.1579 22.144ZM23.1579 8.66806C19.6666 8.66806 16.8261 11.5085 16.8261 14.9998C16.8261 18.4911 19.6665 21.3315 23.1579 21.3315C26.6493 21.3315 29.4898 18.4912 29.4898 14.9998C29.4898 11.5085 26.6493 8.66806 23.1579 8.66806Z" fill="#0B369C"/>
<path fill-rule="evenodd" clip-rule="evenodd" d="M16.164 4.01903C15.9396 4.01903 15.7578 3.83714 15.7578 3.6128V0.705056C15.7578 0.480646 15.9396 0.298828 16.164 0.298828C16.3884 0.298828 16.5703 0.480645 16.5703 0.705056V3.6128C16.5703 3.83706 16.3884 4.01903 16.164 4.01903Z" fill="#0B369C"/>
<path fill-rule="evenodd" clip-rule="evenodd" d="M19.6171 4.2757C19.5624 4.2757 19.5069 4.26463 19.4537 4.24122C19.2483 4.1508 19.1551 3.91111 19.2454 3.70574L20.481 0.897072C20.5713 0.691706 20.811 0.598473 21.0164 0.688755C21.2218 0.779183 21.315 1.01887 21.2247 1.22424L19.9892 4.03291C19.9222 4.18505 19.7734 4.2757 19.6171 4.2757Z" fill="#0B369C"/>
<path fill-rule="evenodd" clip-rule="evenodd" d="M12.7203 4.31281C12.564 4.31281 12.4151 4.22216 12.3482 4.07002L11.1127 1.26135C11.0222 1.05598 11.1155 0.816218 11.321 0.725864C11.5263 0.635583 11.7661 0.728816 11.8564 0.934181L13.092 3.74292C13.1823 3.94829 13.089 4.18798 12.8837 4.27833C12.8304 4.30173 12.7749 4.31281 12.7203 4.31281Z" fill="#0B369C"/>
<path fill-rule="evenodd" clip-rule="evenodd" d="M16.4765 29.7026C16.2521 29.7026 16.0703 29.5208 16.0703 29.2964V26.3887C16.0703 26.1643 16.2521 25.9824 16.4765 25.9824C16.701 25.9824 16.8828 26.1643 16.8828 26.3887V29.2964C16.8828 29.5208 16.7009 29.7026 16.4765 29.7026Z" fill="#0B369C"/>
<path fill-rule="evenodd" clip-rule="evenodd" d="M21.1655 29.3459C21.0093 29.3459 20.8604 29.2553 20.7934 29.1031L19.5579 26.2944C19.4676 26.089 19.5608 25.8493 19.7662 25.759C19.9718 25.6689 20.2113 25.762 20.3016 25.9673L21.5372 28.776C21.6275 28.9813 21.5343 29.2211 21.3289 29.3114C21.2757 29.3349 21.2202 29.3459 21.1655 29.3459Z" fill="#0B369C"/>
<path fill-rule="evenodd" clip-rule="evenodd" d="M11.7968 29.3068C11.7421 29.3068 11.6867 29.2957 11.6334 29.2723C11.4281 29.182 11.3348 28.9422 11.4251 28.7369L12.6606 25.9283C12.751 25.7229 12.9907 25.6298 13.196 25.7199C13.4013 25.8102 13.4946 26.05 13.4043 26.2554L12.1688 29.0639C12.1019 29.2162 11.953 29.3068 11.7968 29.3068Z" fill="#0B369C"/>
</svg>
