<svg width="30" height="30" viewBox="0 0 30 30" fill="none" xmlns="http://www.w3.org/2000/svg">
<path d="M15.0016 9.50317C17.6258 9.50317 19.7532 7.37581 19.7532 4.75159C19.7532 2.12737 17.6258 0 15.0016 0C12.3774 0 10.25 2.12735 10.25 4.75159C10.25 7.37582 12.3774 9.50317 15.0016 9.50317ZM15.5955 8.26599V5.93948L17.207 7.55103C16.7478 7.91333 16.1972 8.16505 15.5955 8.26599ZM18.5653 4.75159C18.5653 5.43124 18.375 6.06647 18.0448 6.60689L15.5955 4.15764L15.5949 1.23707C17.2807 1.51957 18.5653 2.98556 18.5653 4.75159ZM12.7961 7.55104L14.4076 5.93948L14.408 8.26605C13.8062 8.16515 13.2555 7.91342 12.7961 7.55104ZM14.4076 1.23717L14.4076 4.15764L11.9583 6.60689C11.6282 6.06647 11.4379 5.43124 11.4379 4.75159C11.4379 2.98578 12.7222 1.51994 14.4076 1.23717Z" fill="#0B369C"/>
<path d="M28.5062 14.7239L26.8651 13.9033L27.3721 13.1428C27.6193 12.7719 27.75 12.3404 27.75 11.8947V9.48246C28.3605 9.03362 28.75 8.31148 28.75 7.50027C28.75 7.3622 28.6381 7.25027 28.5 7.25027H25.5C24.2593 7.25027 23.25 8.2596 23.25 9.50027V11.8947C23.25 12.3404 23.3807 12.7719 23.6279 13.1428L24.1349 13.9033L22.4938 14.7239C22.0512 14.9451 21.7062 15.2958 21.4928 15.7171L20.8594 15.4004C21.4429 14.4334 21.75 13.332 21.75 12.1975V12.0003C21.75 11.0353 20.965 10.2503 20 10.2503C19.035 10.2503 18.25 11.0353 18.25 12.0003V12.1975C18.25 13.332 18.5571 14.4334 19.1406 15.4004L17.75 16.0958L16.4073 15.4244C16.9531 14.7684 17.25 13.9501 17.25 13.0861V12.5003C17.25 11.2596 16.2407 10.2503 15 10.2503C13.7593 10.2503 12.75 11.2596 12.75 12.5003V13.0861C12.75 13.9501 13.0469 14.7684 13.5927 15.4244L12.5 15.9708L11.3594 15.4004C11.9429 14.4334 12.25 13.332 12.25 12.1975V12.0003C12.25 11.0353 11.465 10.2503 10.5 10.2503C9.53503 10.2503 8.75 11.0353 8.75 12.0003V12.1975C8.75 13.332 9.05707 14.4334 9.64062 15.4004L8.39609 16.0227C8.24301 15.7836 8.04422 15.5738 7.80717 15.4055L8.35754 14.0296C8.62268 13.3668 8.54456 12.6164 8.14856 12.0224C7.90149 11.6518 7.81354 11.2073 7.90094 10.7705L8.04156 10.0669C8.18548 9.34762 7.96173 8.60845 7.44293 8.08965C6.90967 7.55636 6.24103 7.17782 5.50946 6.99496C4.849 6.82983 4.15094 6.8298 3.4906 6.99493C2.75891 7.17782 2.09033 7.55639 1.55707 8.08968C1.03827 8.60845 0.814514 9.34762 0.958435 10.0669L1.09912 10.7705C1.18646 11.2073 1.09851 11.6518 0.851441 12.0224C0.455444 12.6164 0.377319 13.3668 0.642456 14.0295L1.19283 15.4055C0.604324 15.8234 0.25 16.4974 0.25 17.2363V24.0003C0.25 24.6363 0.727829 25.1618 1.34319 25.2393L0.748078 30.0003H8.25192L7.65681 25.2393C8.27217 25.1618 8.75 24.6363 8.75 24.0003V22.7503H10.75V23.0003C10.75 23.6895 11.3107 24.2503 12 24.2503H12.25V30.0003H12.75V23.7503H17.25V30.0003H17.75V24.2503H18C18.6893 24.2503 19.25 23.6895 19.25 23.0003V22.7503H21.25V23.5003C21.25 24.1895 21.8107 24.7503 22.5 24.7503H22.75V30.0003H23.25V23.7503H27.75V30.0003H28.25V24.7503H28.5C29.1893 24.7503 29.75 24.1895 29.75 23.5003V16.7363C29.75 15.8786 29.2734 15.1075 28.5062 14.7239ZM2.75 10.1804L5.37335 9.30599L6.25 11.0593V11.1975C6.25 12.3273 5.9187 13.4215 5.29199 14.3616C5.27953 14.3803 5.27078 14.4007 5.26382 14.4216L5.26282 14.4212C5.12769 14.8266 4.78021 14.971 4.5 14.971C4.21979 14.971 3.87231 14.8266 3.73718 14.4212L3.73618 14.4216C3.72922 14.4007 3.72047 14.3803 3.70801 14.3616C3.0813 13.4215 2.75 12.3273 2.75 11.1975L2.75 10.1804ZM1.75 21.9847L1.40515 24.7436C1.0363 24.6967 0.749999 24.3816 0.749999 24.0003V20.7503H1.75V21.9847ZM8.25 24.0003C8.25 24.3816 7.9637 24.6967 7.59485 24.7436L7.25 21.9847V20.7503H8.25V24.0003ZM8.25 20.2503H7.25V20.0408L7.38361 19.64C7.63269 18.8927 7.57587 18.0931 7.22363 17.3885L6.77637 17.6121C7.06897 18.1972 7.11615 18.8613 6.90924 19.4819L6.76282 19.9212C6.75433 19.9467 6.75 19.9734 6.75 20.0003V21.7503H2.25V20.0003C2.25 19.9734 2.24567 19.9467 2.23718 19.9212L2.09076 19.4819C1.88385 18.8613 1.93103 18.1972 2.22363 17.6121L1.77637 17.3885C1.42413 18.0931 1.36731 18.8927 1.61639 19.64L1.75 20.0408V20.2503H0.749999V17.2363C0.749999 16.5692 1.12067 15.9694 1.71741 15.6711L3.38164 14.839C3.61246 15.2299 4.0266 15.471 4.5 15.471C4.9734 15.471 5.38754 15.2299 5.61836 14.839L7.28259 15.6711C7.87933 15.9694 8.25 16.5692 8.25 17.2363L8.25 20.2503ZM10.75 18.2363V22.2503H8.75V17.2363C8.75 16.9698 8.70386 16.7118 8.61745 16.4711L10.1118 15.7239C10.176 15.6918 10.2232 15.6338 10.2416 15.5644C10.26 15.4951 10.2478 15.4213 10.208 15.3616C9.5813 14.4215 9.25 13.3273 9.25 12.1975V12.0003C9.25 11.311 9.81073 10.7503 10.5 10.7503C11.1893 10.7503 11.75 11.311 11.75 12.0003V12.1975C11.75 13.3273 11.4187 14.4215 10.792 15.3616C10.7522 15.4213 10.74 15.4951 10.7584 15.5644C10.7768 15.6338 10.824 15.6918 10.8882 15.7239L11.9432 16.2514C11.2061 16.6433 10.75 17.3979 10.75 18.2363ZM12.25 23.7503H12C11.5864 23.7503 11.25 23.4138 11.25 23.0003V18.2363C11.25 18.1495 11.2566 18.064 11.2688 17.9799L11.4707 18.1146C11.9587 18.4399 12.25 18.9842 12.25 19.5706V23.7503ZM14.1768 15.3235C13.5792 14.7259 13.25 13.9313 13.25 13.0861V12.7503H16.75V13.0861C16.75 13.9313 16.4208 14.7259 15.8232 15.3235C15.3693 15.7774 14.6307 15.7774 14.1768 15.3235ZM18.75 23.0003C18.75 23.4138 18.4136 23.7503 18 23.7503H17.75V19.5706C17.75 18.9842 18.0413 18.4399 18.5293 18.1146L18.7312 17.9799C18.7434 18.064 18.75 18.1495 18.75 18.2363V23.0003ZM21.25 16.7363V22.2503H19.25V18.2363C19.25 17.4874 18.8865 16.8045 18.2836 16.388L19.6118 15.7239C19.676 15.6918 19.7232 15.6338 19.7416 15.5644C19.76 15.4951 19.7478 15.4213 19.708 15.3616C19.0813 14.4215 18.75 13.3273 18.75 12.1975V12.0003C18.75 11.311 19.3107 10.7503 20 10.7503C20.6893 10.7503 21.25 11.311 21.25 12.0003V12.1975C21.25 13.3273 20.9187 14.4215 20.292 15.3616C20.2522 15.4213 20.24 15.4951 20.2584 15.5644C20.2768 15.6338 20.324 15.6918 20.3882 15.7239L21.3179 16.1887C21.2741 16.3652 21.25 16.5484 21.25 16.7363ZM22.75 24.2503H22.5C22.0864 24.2503 21.75 23.9138 21.75 23.5003V20.2503H22.75V24.2503ZM24.6914 13.8367L24.0439 12.8654C23.8516 12.577 23.75 12.2414 23.75 11.8947V10.2265L26.5349 9.94802C26.7875 9.92276 27.0274 9.85988 27.25 9.76618V11.8947C27.25 12.2414 27.1484 12.577 26.9561 12.8654L26.3086 13.8367C25.8583 14.272 25.1417 14.272 24.6914 13.8367ZM29.25 23.5003C29.25 23.9138 28.9136 24.2503 28.5 24.2503H28.25V20.2503H29.25V23.5003Z" fill="#0B369C"/>
<path d="M25.75 25.5H25.25V30H25.75V25.5Z" fill="#0B369C"/>
<path d="M15.25 25.5H14.75V30H15.25V25.5Z" fill="#0B369C"/>
<path d="M10.75 25H10.25V30H10.75V25Z" fill="#0B369C"/>
<path d="M20.25 25H19.75V30H20.25V25Z" fill="#0B369C"/>
</svg>
