<svg width="16" height="16" viewBox="0 0 16 16" fill="none" xmlns="http://www.w3.org/2000/svg">
<rect width="16" height="16" rx="8" fill="#1CB5EA"/>
<g clip-path="url(#clip0_4260_4746)">
<path d="M6.94411 11.0711C6.82121 11.0711 6.70318 11.0223 6.61602 10.9352L4.13595 8.45541C3.95468 8.27425 3.95468 7.9804 4.13595 7.79914C4.31712 7.61787 4.61106 7.61777 4.79223 7.79914L6.92505 9.93156L11.1897 5.15497C11.3604 4.96398 11.6537 4.9471 11.845 5.11784C12.0362 5.28859 12.0529 5.58193 11.8821 5.77313L7.29027 10.916C7.20529 11.0112 7.08478 11.0672 6.95721 11.0709C6.95285 11.071 6.94848 11.0711 6.94411 11.0711Z" fill="white"/>
</g>
<defs>
<clipPath id="clip0_4260_4746">
<rect width="8" height="6.07118" fill="white" transform="translate(4 5)"/>
</clipPath>
</defs>
</svg>
