<svg width="46" height="46" viewBox="0 0 46 46" fill="none" xmlns="http://www.w3.org/2000/svg">
<rect width="46" height="46" rx="23" fill="#00B9F2"/>
<path d="M20.4769 27.7927H24.5841V24.3701H28.0067V20.2629H24.5841V16.8403H20.4769V20.2629H17.0543V24.3701H20.4769V27.7927ZM22.5305 36.6915C19.3589 35.8929 16.7406 34.0732 14.6756 31.2324C12.6106 28.3916 11.5781 25.2371 11.5781 21.7689V13.4177L22.5305 9.31055L33.4829 13.4177V21.7689C33.4829 25.2371 32.4504 28.3916 30.3854 31.2324C28.3204 34.0732 25.7021 35.8929 22.5305 36.6915ZM22.5305 33.8165C24.9035 33.0635 26.8658 31.5576 28.4174 29.2986C29.969 27.0397 30.7448 24.5298 30.7448 21.7689V15.3001L22.5305 12.2198L14.3162 15.3001V21.7689C14.3162 24.5298 15.092 27.0397 16.6436 29.2986C18.1952 31.5576 20.1575 33.0635 22.5305 33.8165Z" fill="white"/>
</svg>
