<svg width="24" height="24" viewBox="0 0 24 24" fill="none" xmlns="http://www.w3.org/2000/svg">
<g id="iconoir:x">
<g id="Group">
<path id="Vector" d="M16.8181 20.768L3.75111 3.968C3.68223 3.87931 3.63963 3.77307 3.62815 3.66137C3.61666 3.54967 3.63675 3.43698 3.68614 3.33613C3.73552 3.23528 3.81221 3.15032 3.90749 3.09089C4.00277 3.03147 4.11281 2.99998 4.22511 3H6.70511C6.7964 3.00014 6.88646 3.0211 6.96843 3.06131C7.0504 3.10151 7.12211 3.15989 7.17811 3.232L20.2451 20.032C20.314 20.1207 20.3566 20.2269 20.3681 20.3386C20.3796 20.4503 20.3595 20.563 20.3101 20.6639C20.2607 20.7647 20.184 20.8497 20.0887 20.9091C19.9934 20.9685 19.8834 21 19.7711 21H17.2911C17.1998 20.9999 17.1097 20.9789 17.0278 20.9387C16.9458 20.8985 16.8741 20.8401 16.8181 20.768Z" stroke="white" stroke-width="1.5"/>
<path id="Vector_2" d="M20 3L4 21" stroke="white" stroke-width="1.5" stroke-linecap="round"/>
</g>
</g>
</svg>
